<?xml version="1.0" encoding="utf-8"?>
<!-- Generator: Adobe Illustrator 16.0.0, SVG Export Plug-In . SVG Version: 6.00 Build 0)  -->
<!DOCTYPE svg PUBLIC "-//W3C//DTD SVG 1.1//EN" "http://www.w3.org/Graphics/SVG/1.1/DTD/svg11.dtd">
<svg version="1.1" id="Layer_1" xmlns="http://www.w3.org/2000/svg" xmlns:xlink="http://www.w3.org/1999/xlink" x="0px" y="0px"
	 width="841.89px" height="595.281px" viewBox="0 0 841.89 595.281" enable-background="new 0 0 841.89 595.281"
	 xml:space="preserve">
<g>
	<g>
		<path fill="#136BA2" d="M812.767,250.02c-16.742-9.367-23.518-12.955-33.484-12.955c-9.168,0-13.553,4.783-13.553,11.959
			c0,21.924,52.619,15.945,52.619,66.77c0,27.902-15.348,44.645-41.457,44.645c-15.945,0-23.52-6.775-35.078-14.549v-31.291
			c16.742,13.752,23.518,18.934,36.273,18.934c9.766,0,13.553-5.182,13.553-13.752c0-23.918-52.219-14.949-52.219-67.766
			c0-25.313,10.563-42.055,37.471-42.055c12.955,0,21.127,3.389,35.875,11.559V250.02L812.767,250.02z"/>
		<path fill="#136BA2" d="M386.242,271.545h11.959c8.171,0,16.144-4.385,16.144-16.742c0-11.16-5.78-16.742-16.742-16.742h-11.161
			v33.484H386.242z M406.173,211.553c23.918,0,34.48,20.131,34.48,42.055c0,15.945-6.576,27.904-19.931,35.479
			c-3.787,1.594-5.581,1.992-8.371,2.789l40.261,65.773H424.31l-38.068-59.594v59.594h-25.711V211.553
			C360.73,211.553,406.173,211.553,406.173,211.553z"/>
		<path fill="#136BA2" d="M513.602,246.233l-13.554,57.004h28.9L513.602,246.233z M574.99,357.649h-27.704l-9.567-29.1h-45.642
			l-8.57,29.1h-27.306l43.449-146.096h26.907L574.99,357.649z"/>
		<rect x="583.56" y="211.553" fill="#136BA2" width="25.711" height="146.096"/>
		<polygon fill="#136BA2" points="728.259,357.649 706.933,357.649 653.121,263.772 653.121,357.649 627.409,357.649 
			627.409,211.553 650.728,211.553 702.548,300.645 702.548,211.553 728.259,211.553 		"/>
		<path fill="#136BA2" d="M299.542,330.741h-9.368v-34.281h13.553c10.364,0,17.938,5.582,17.938,16.344
			C321.466,325.559,315.687,330.741,299.542,330.741 M323.858,277.127c9.966-5.98,16.145-16.742,16.145-29.1
			c0-6.578-1.196-13.553-4.385-19.732c-9.367,8.371-19.731,17.34-22.92,20.131c0.398,1.594,0.797,3.389,0.797,5.182
			c0,7.773-4.186,15.945-14.749,15.945h-8.371v-7.574V238.26v-3.586l30.694-20.131c-4.385-1.795-9.567-2.99-15.945-2.99h-40.261
			v146.096h42.852c34.281,0,41.457-26.109,41.457-42.852C348.772,297.657,340.6,282.708,323.858,277.127"/>
	</g>
	<g>
		<path fill="#FA930D" d="M360.332,194.413c-1.595-0.996-20.33,10.764-32.089,18.936l-4.385,2.988l-30.096,20.33v22.521
			c6.378-4.385,11.759-8.57,15.347-12.357l22.522-19.332c0,0,11.36-10.166,17.141-16.145l2.192-1.992
			c1.594-1.396,2.791-2.592,2.791-3.986v-0.199C353.755,204.377,360.93,194.811,360.332,194.413"/>
		<path fill="#FA930D" d="M155.042,308.418c-0.398-7.773-1.993-17.738,8.172-23.119c3.986-2.193,6.179-0.799,7.574,0.598
			C173.378,288.487,167.399,300.844,155.042,308.418 M69.139,397.311c-6.976-5.58-10.165-10.363-15.347-22.721
			c-8.57-20.729,3.388-27.307,24.914-39.465C76.114,357.25,74.321,402.493,69.139,397.311 M241.941,289.684l18.336-12.557v-22.523
			l-16.543,10.764c0,0-14.749,9.566-19.731,12.955c0.398-2.99,0.797-5.979,0.797-5.979c2.591-19.135,4.983-38.27,4.983-50.824
			c0-6.18-0.598-10.764-1.993-13.156c-0.997-1.793-2.392-2.789-4.186-3.188c-2.392-0.398-5.182,0.398-7.972,2.391
			c-8.371,5.781-12.557,22.922-12.557,52.021c0,9.367,0.398,20.129,1.395,32.088c-0.997,0.797-5.78,5.182-5.78,5.182l-8.371,7.375
			c0,0-0.2,0.199-0.399,0.398c-7.773,6.777-12.756,10.764-14.55,11.361c-2.392,0.996-4.385,1.195-6.178,0.996
			c10.563-7.773,19.134-24.516,19.134-34.48c0-1.195-0.199-2.193-0.399-3.189c-1.793-6.775-5.182-11.76-9.965-14.35
			c-4.584-2.393-10.364-2.592-16.742-0.199l-2.591,0.996c-11.56,5.182-47.038,25.113-58,31.291
			c1.395-15.545,7.773-86.301,9.367-123.771c1.196-24.117,0-9.168,0-13.951c0-17.54-22.123,0-34.281,12.158
			c-5.182,5.182-21.127,19.73-15.347,30.893c6.178,11.959,12.756,7.973,16.343,28.502c5.979,36.273,1.395,73.346,1.395,75.738
			c-1.993,0.996-17.141,8.172-17.141,8.172c-26.11,12.158-46.041,21.326-46.041,36.473c0,2.393,0.399,4.783,1.595,7.574
			c21.725,56.803,51.223,87.299,62.982,84.309c16.941-4.584,17.539-26.707,18.735-60.391c0.598-16.742,1.196-35.877,3.787-57.203
			c1.395-0.797,29.896-22.123,35.079-25.512c-2.591,5.182-2.591,10.166-2.591,12.756c0,6.777,0.997,12.158,2.392,14.949
			c2.192,4.783,4.385,8.371,9.567,10.762c6.577,3.189,12.357,3.986,23.718-0.398c5.182-1.992,13.752-7.973,23.519-16.145
			c1.993,3.389,10.364,17.738,10.364,17.738l7.773,13.156c3.388,6.178,8.969,7.971,15.147,4.783
			c4.584-2.393,7.773-4.385,8.571-7.375c0.199-0.598,0.199-1.195,0.199-1.793c0-1.994-0.997-3.986-1.794-5.383
			c-8.77-15.744-9.368-29.299-9.368-39.861c0-0.598,0-1.396,0-1.994C225.996,300.844,241.941,289.684,241.941,289.684"/>
	</g>
</g>
</svg>
